<svg width="164" height="20" viewBox="0 0 164 20" fill="none" xmlns="http://www.w3.org/2000/svg">
<path d="M6.53656 10.6829V7.95119H16.878V8.34143C16.878 9.36582 16.6829 10.3414 16.2926 11.2683C15.9024 12.1951 15.317 13.0731 14.5853 13.8536C12.9756 15.4634 11.0243 16.2926 8.58533 16.2926C7.36582 16.2926 6.24388 16.0975 5.21949 15.6585C4.14633 15.2195 3.26828 14.6341 2.48779 13.9512C1.70731 13.2682 1.12194 12.3414 0.682921 11.317C0.243899 10.2926 0 9.21948 0 8.09753C0 6.97558 0.195123 5.90242 0.634146 4.92681C1.07317 3.90243 1.65853 3.07316 2.39023 2.34146C3.12194 1.60975 3.99999 1.02439 5.02437 0.634145C6.04876 0.195122 7.12193 0 8.29265 0C9.4146 0 10.5365 0.195122 11.5609 0.634145C12.6341 1.07317 13.5609 1.65853 14.3414 2.39024C15.1219 3.12194 15.7073 3.99999 15.9999 4.92681H12.5365C12.0487 4.24389 11.4146 3.7073 10.6829 3.36584C9.95118 3.02438 9.12192 2.82926 8.19509 2.82926C7.41461 2.82926 6.73168 2.9756 6.04876 3.2195C5.36583 3.4634 4.82925 3.85364 4.34145 4.34145C3.90242 4.82925 3.51218 5.41461 3.26828 6.09754C3.02438 6.78046 2.87804 7.46339 2.87804 8.14631C2.87804 9.6585 3.41462 10.9268 4.439 11.9512C5.46339 12.9756 6.78046 13.4634 8.34143 13.4634C9.36582 13.4634 10.2926 13.2195 11.1219 12.7317C11.9512 12.2439 12.5365 11.5609 12.9756 10.6829H6.53656Z" fill="black"/>
<path d="M20.2432 16.049V4.19538H22.8285V5.36611C23.2188 4.82952 23.5602 4.43928 23.9505 4.24416C24.2919 4.04904 24.7797 3.95148 25.4139 3.95148H25.609V6.68317C23.9017 6.73196 23.0724 7.65878 23.0724 9.46365V16.049H20.2432Z" fill="black"/>
<path d="M34.1461 3.90271C35.2681 3.90271 36.3412 4.19539 37.2681 4.73198C38.2437 5.26856 38.9754 6.04904 39.5607 7.02465C40.1461 8.00026 40.39 9.02464 40.39 10.1466C40.39 11.2685 40.0973 12.2929 39.5607 13.2197C39.0242 14.1466 38.2437 14.9271 37.2681 15.4636C36.2925 16.0002 35.2681 16.2929 34.0973 16.2929C32.9754 16.2929 31.9022 16.0002 30.9266 15.4636C29.951 14.9271 29.1705 14.1466 28.634 13.2197C28.0486 12.2929 27.8047 11.2198 27.8047 10.1466C27.8047 9.31733 27.951 8.48806 28.2925 7.70757C28.634 6.92709 29.073 6.29295 29.6583 5.70758C30.2437 5.171 30.9266 4.73198 31.7071 4.39051C32.4388 4.09783 33.2681 3.90271 34.1461 3.90271ZM33.9998 6.53685C33.073 6.53685 32.2925 6.87831 31.6096 7.61001C30.9266 8.29294 30.6339 9.17098 30.6339 10.1466C30.6339 11.1222 30.9754 12.0002 31.6583 12.6832C32.3413 13.3661 33.1217 13.7563 34.0486 13.7563C34.9754 13.7563 35.8047 13.4149 36.4876 12.6832C37.1705 12.0002 37.512 11.1222 37.512 10.1466C37.512 9.1222 37.1705 8.29294 36.4876 7.56123C35.8047 6.87831 34.9754 6.53685 33.9998 6.53685Z" fill="black"/>
<path d="M46.2439 16.0488L42 4.19519H45.0732L47.1707 11.4147L49.1707 4.19519H51.4146L53.3658 11.4147L55.5122 4.19519H58.5365L54.2439 16.0488H52.4878L50.2927 8.34152L48 16H46.2439V16.0488Z" fill="black"/>
<path d="M61.8541 16.0486V6.78034H60.4883V4.19498H61.8541V0.243774H64.6834V4.19498H66.3907V6.78034H64.6834V16.0486H61.8541Z" fill="black"/>
<path d="M69.3174 16.0486V0.243774H72.1467V5.02425C72.9759 4.29254 73.9515 3.9023 75.171 3.9023C76.0491 3.9023 76.8296 4.04864 77.5125 4.3901C78.1954 4.73156 78.732 5.21937 79.1222 5.85351C79.3661 6.29253 79.5613 6.78034 79.6588 7.31692C79.7564 7.8535 79.8052 8.53643 79.8052 9.36569V16.0486H76.9759V9.99984C76.9759 8.73155 76.7808 7.8535 76.4393 7.31692C76.0978 6.78034 75.5125 6.53643 74.6832 6.53643C73.6588 6.53643 72.9759 6.92668 72.5857 7.70716C72.3418 8.19497 72.1954 8.92667 72.1954 10.0486V16.0486H69.3174Z" fill="black"/>
<path d="M88.5374 0.243774H91.4642V11.512C91.4642 13.0242 91.074 14.1949 90.3423 15.0242C89.5618 15.9023 88.5374 16.2925 87.2204 16.2925C86.5374 16.2925 85.9033 16.1462 85.3179 15.9023C84.7326 15.6584 84.196 15.2681 83.8057 14.7803C83.513 14.4388 83.2691 14.0974 83.1716 13.7071C83.0252 13.3657 82.9277 12.8779 82.8789 12.2437H85.8057C86.0008 13.0242 86.4399 13.4145 87.2204 13.4145C88.1472 13.4145 88.635 12.7315 88.635 11.3657V0.243774H88.5374Z" fill="black"/>
<path d="M101.464 3.90271C102.585 3.90271 103.659 4.19539 104.585 4.73198C105.561 5.26856 106.293 6.04904 106.878 7.02465C107.463 8.00026 107.707 9.02464 107.707 10.1466C107.707 11.2685 107.415 12.2929 106.878 13.2197C106.342 14.1466 105.561 14.9271 104.585 15.4636C103.61 16.0002 102.585 16.2929 101.415 16.2929C100.293 16.2929 99.2196 16.0002 98.244 15.4636C97.2684 14.9271 96.4879 14.1466 95.9513 13.2197C95.366 12.2929 95.1221 11.2198 95.1221 10.1466C95.1221 9.31733 95.2684 8.48806 95.6099 7.70757C95.9513 6.92709 96.3904 6.29295 96.9757 5.70758C97.5611 5.171 98.244 4.73198 99.0245 4.39051C99.7562 4.09783 100.585 3.90271 101.464 3.90271ZM101.317 6.53685C100.39 6.53685 99.6099 6.87831 98.9269 7.61001C98.244 8.29294 97.9513 9.17098 97.9513 10.1466C97.9513 11.1222 98.2928 12.0002 98.9757 12.6832C99.6587 13.3661 100.439 13.7563 101.366 13.7563C102.293 13.7563 103.122 13.4149 103.805 12.6832C104.488 12.0002 104.829 11.1222 104.829 10.1466C104.829 9.1222 104.488 8.29294 103.805 7.56123C103.122 6.87831 102.293 6.53685 101.317 6.53685Z" fill="black"/>
<path d="M119.415 12.1466H122.634C122.147 13.4637 121.366 14.488 120.342 15.2197C119.317 15.9514 118.098 16.2929 116.732 16.2929C115.854 16.2929 115.025 16.1466 114.244 15.8051C113.464 15.4636 112.781 15.0246 112.244 14.488C111.659 13.9515 111.22 13.2685 110.878 12.5368C110.537 11.7563 110.391 10.9759 110.391 10.0978C110.391 8.97586 110.683 7.9027 111.22 6.97587C111.756 6.04904 112.537 5.26856 113.464 4.73198C114.391 4.19539 115.464 3.90271 116.634 3.90271C117.464 3.90271 118.293 4.04905 119.074 4.34173C119.854 4.63441 120.537 5.07344 121.074 5.6588C121.464 6.04904 121.756 6.39051 121.952 6.73197C122.147 7.07343 122.391 7.56123 122.586 8.1466H119.366C118.83 7.07343 117.903 6.53685 116.586 6.53685C115.61 6.53685 114.781 6.87831 114.147 7.51245C113.513 8.1466 113.22 9.02464 113.22 10.0978C113.22 11.1222 113.561 12.0002 114.195 12.6832C114.83 13.3661 115.659 13.7076 116.634 13.7076C117.22 13.7076 117.708 13.5612 118.147 13.3173C118.634 13.0734 119.074 12.6832 119.415 12.1466Z" fill="black"/>
<path d="M125.854 16.0486V0.243774H128.684V9.75594L132.44 4.1462H135.854L131.611 9.95106L136.537 15.9998H132.684L128.635 10.4876V15.9998H125.854V16.0486Z" fill="black"/>
<path d="M150.096 11.3661H140.926C141.121 12.0978 141.462 12.6344 142.048 13.0734C142.633 13.5124 143.365 13.7076 144.194 13.7076C144.779 13.7076 145.267 13.61 145.657 13.4637C146.048 13.2685 146.438 12.9758 146.779 12.5368H149.901C149.755 13.0734 149.413 13.61 148.974 14.1954C147.755 15.61 146.194 16.3417 144.292 16.3417C143.414 16.3417 142.535 16.1953 141.755 15.8539C140.974 15.5124 140.292 15.1222 139.706 14.5368C139.121 13.9515 138.682 13.3173 138.34 12.5856C137.999 11.8539 137.853 11.0246 137.853 10.1466C137.853 9.02464 138.145 7.95148 138.682 6.97587C139.218 6.00026 139.999 5.26856 140.926 4.73198C141.901 4.19539 142.926 3.90271 144.096 3.90271C145.267 3.90271 146.292 4.19539 147.218 4.73198C148.145 5.26856 148.877 6.04904 149.413 7.02465C149.95 8.00026 150.194 9.07342 150.194 10.2929C150.194 10.6832 150.145 11.0246 150.096 11.3661ZM140.828 8.8783H147.413C147.218 8.09782 146.877 7.56123 146.292 7.12221C145.706 6.73197 145.023 6.53685 144.145 6.53685C143.316 6.53685 142.584 6.73197 142.048 7.12221C141.462 7.51245 141.072 8.09782 140.828 8.8783Z" fill="black"/>
<path d="M153.901 20L156.145 14.9269L151.804 4.19519H155.072L157.706 11.9025L160.584 4.19519H163.852L157.023 20H153.901Z" fill="black"/>
</svg>
