<svg width="42" height="42" viewBox="0 0 42 42" fill="none" xmlns="http://www.w3.org/2000/svg">
<path d="M41.9157 20.9998C41.9157 32.6091 32.5916 41.8359 21.0024 41.8359C9.41332 41.8359 0.0136719 32.6847 0.0136719 21.0755C0.0136719 9.46622 9.30007 0.0124512 20.8892 0.0124512C32.4783 0.0124512 41.9157 9.39059 41.9157 20.9998Z" fill="white"/>
<path d="M36.177 35.4829L34.818 30.3779L34.7047 29.9241C32.7795 32.8737 29.9483 35.2182 26.4376 36.4661C26.0223 36.6174 25.5693 36.7686 25.1541 36.8821C20.7751 38.0165 16.3584 37.298 12.7345 35.1426C9.11052 33.0249 6.31705 29.5081 5.18456 25.1216C2.91959 16.3485 8.12903 7.42412 16.8869 5.1174C17.5287 4.92832 16.8869 5.1174 18.7744 4.6258L29.684 1.8653C29.684 1.8653 29.684 1.8653 29.7218 1.8653C25.4561 -0.0254547 20.5486 -0.592681 15.6789 0.693032C4.46732 3.60479 -2.25211 15.0628 0.692361 26.2938C3.63683 37.5249 15.0749 44.256 26.2866 41.3064C30.3258 40.2854 33.5345 38.3569 36.177 35.4829Z" fill="url(#paint0_linear_4005_18214)"/>
<path d="M40.0659 29.6592L39.9902 29.7348Z" fill="url(#paint1_linear_4005_18214)"/>
<path d="M26.438 25.1218C26.438 25.1218 26.438 25.1218 20.549 21.5294L36.5926 16.9159C37.1966 19.0336 36.6303 16.9159 37.1966 18.958L40.0278 29.7731C40.0278 29.7731 44.0293 22.8907 40.6318 13.7395C39.2728 10.1092 37.3476 7.57561 35.4601 5.83612L29.9109 7.27309L19.9073 9.88234C19.9073 9.88234 19.9073 9.88234 19.8695 9.88234L16.4343 10.7899C11.5646 12.9454 8.80891 18.3151 10.0924 23.6092C11.5646 29.6974 17.6046 33.3655 23.6445 31.8151C27.7969 30.7563 30.8169 27.5042 31.7606 23.6092" fill="#051C2C"/>
<defs>
<linearGradient id="paint0_linear_4005_18214" x1="5.5643" y1="42.5787" x2="27.8991" y2="11.1532" gradientUnits="userSpaceOnUse">
<stop stop-color="#1E40CA"/>
<stop offset="1" stop-color="#00A2ED"/>
</linearGradient>
<linearGradient id="paint1_linear_4005_18214" x1="22.3951" y1="54.5617" x2="44.7166" y2="23.0993" gradientUnits="userSpaceOnUse">
<stop stop-color="#1E40CA"/>
<stop offset="1" stop-color="#00A2ED"/>
</linearGradient>
</defs>
</svg>
